<svg xmlns="http://www.w3.org/2000/svg" width="177.17" height="177.17" fill-rule="evenodd" clip-rule="evenodd" image-rendering="optimizeQuality" shape-rendering="geometricPrecision" viewBox="0 0 50 50"><defs><linearGradient id="0" x1="21.09" x2="77.67" y1="37.1" y2="37.469" gradientUnits="userSpaceOnUse"><stop stop-color="#fff"/><stop offset="1" stop-color="#fff" stop-opacity="0"/></linearGradient></defs><path fill="#1f1a17" d="M25 42.16c-.229.94-.517 1.592-.847 1.956s-.762.745-1.312 1.143c-.593.415-1.295.762-2.108 1.05s-1.71.364-2.701.212l-6.968-.965a2.9 2.9 0 0 0-.762 0q-.33.051-.635.051c-.347 0-.787.076-1.321.237-.542.152-.957.381-1.253.677l-2.404-3.946q.445-.493.787-.694c.237-.127.508-.271.821-.415a9.2 9.2 0 0 1 3.073-.821 12 12 0 0 1 1.363-.025q.673.026 1.397-.051 1.335.228 2.684.406c.906.127 1.812.254 2.718.39.991 0 1.66-.102 2.01-.296q.277-.155.872-.55.597-.394 1.194-1.168a17 17 0 0 1-2.684-.508 24 24 0 0 1-2.404-.754l2.582-6.401c-1.295-.745-2.193-1.338-2.709-1.795a5.3 5.3 0 0 1-1.211-1.575q-.65-1.143-.83-2.21a9.3 9.3 0 0 1-.161-1.913c.017-.991.245-2.083.703-3.285.457-1.194 1.312-2.269 2.565-3.209a80 80 0 0 0 3.057-2.455 28 28 0 0 0 2.946-2.955q-1.829-.94-1.829-2.997c0-.931.322-1.719.974-2.388.652-.66 1.456-.991 2.396-.991.923 0 1.719.33 2.379.991.66.669.991 1.456.991 2.388q0 2.032-1.829 2.997a27 27 0 0 0 2.913 2.955 59 59 0 0 0 3.09 2.455c1.236.94 2.083 2.01 2.523 3.209.449 1.202.694 2.295.72 3.285a12 12 0 0 1-.169 1.913q-.175 1.067-.796 2.21a6 6 0 0 1-1.253 1.575c-.5.457-1.389 1.05-2.667 1.795l2.582 6.401a29 29 0 0 1-2.455.754c-.914.246-1.787.415-2.633.508q.572.775 1.168 1.168c.398.263.694.449.897.55q.52.294 2.01.296c.889-.136 1.787-.263 2.692-.39a81 81 0 0 0 2.718-.406q.66.077 1.346.051.683-.025 1.406.025a9.7 9.7 0 0 1 3.073.821c.296.144.567.288.804.415.245.135.508.364.804.694l-2.43 3.946c-.296-.296-.711-.525-1.253-.677-.533-.161-.965-.237-1.295-.237q-.33 0-.66-.051a2.8 2.8 0 0 0-.754 0l-6.951.965q-1.488.227-2.76-.195c-.855-.279-1.558-.652-2.1-1.118-.542-.449-.982-.83-1.304-1.151s-.593-.957-.804-1.897"/><path fill="url('#0')" d="M24.09 23.705v2.108q0 .914.914.914t.914-.914v-2.134h2.235c.576 0 .872-.296.872-.897 0-.593-.296-.889-.872-.889h-2.235v-2.235q0-.915-.914-.914-.915 0-.914.914v2.235h-2.184c-.584 0-.872.296-.872.889 0 .601.288.897.872.897l2.184.025m7.51 13.741-1.041-2.531c-1.685-.364-3.539-.542-5.554-.542-1.998 0-3.835.178-5.503.542l-1.041 2.506q3.075-.772 6.545-.77c2.286 0 4.479.262 6.596.796m-2.083-5.114-.72-1.736v-.669a27 27 0 0 0-3.793-.271c-1.236 0-2.498.093-3.768.271l-.025.669-.669 1.736a26 26 0 0 1 4.462-.373c1.592 0 3.09.127 4.513.373m-.864 9.381c-.66-.499-1.329-1.287-1.99-2.362h-.787c0 .813.186 1.6.567 2.362zm-5.114 0c.381-.813.576-1.6.576-2.362h-.796c-.643 1.058-1.312 1.846-2.02 2.362h2.235"/></svg>