<svg xmlns="http://www.w3.org/2000/svg" width="177.17" height="177.17" fill-rule="evenodd" clip-rule="evenodd" image-rendering="optimizeQuality" shape-rendering="geometricPrecision" viewBox="0 0 50 50"><path fill="#1f1a17" d="M25 46.45H11.606a13.15 13.15 0 0 1-.991-5.043c0-2.975.864-5.645 2.599-8.018 1.736-2.365 3.971-4.054 6.697-5.068a6.83 6.83 0 0 1-2.862-2.398c-.737-1.071-1.101-2.282-1.101-3.634q-.002-2.536 1.736-4.392c1.152-1.244 2.574-1.966 4.267-2.15q-2.02-1.478-2.02-3.89c0-1.352.491-2.513 1.482-3.477.982-.965 2.176-1.443 3.581-1.443 1.389 0 2.582.478 3.573 1.443q1.488 1.448 1.49 3.477c0 1.607-.669 2.91-2.02 3.89q2.54.283 4.267 2.15c1.16 1.236 1.736 2.703 1.736 4.392q.002 2.028-1.126 3.634a7.03 7.03 0 0 1-2.862 2.398q4.091 1.52 6.697 5.068c1.736 2.373 2.599 5.043 2.599 8.018q0 2.608-.965 5.043H24.989"/></svg>