<svg xmlns="http://www.w3.org/2000/svg" width="177.17" height="177.17" fill-rule="evenodd" clip-rule="evenodd" image-rendering="optimizeQuality" shape-rendering="geometricPrecision" viewBox="0 0 50 50"><defs><linearGradient id="0" x1="21.253" x2="77.76" y1="37.22" y2="37.36" gradientUnits="userSpaceOnUse"><stop stop-color="#fff"/><stop offset="1" stop-color="#fff" stop-opacity="0"/></linearGradient></defs><g fill="#1f1a17"><path d="M24.949 10.752c-.94 0-1.744-.33-2.396-.991-.652-.66-.974-1.465-.974-2.405q-.002-1.396.974-2.388c.652-.66 1.456-.991 2.396-.991.923 0 1.727.33 2.396.991.669.66.999 1.456.999 2.388 0 .94-.33 1.744-.999 2.405s-1.473.991-2.396.991M40.23 43.942q-1.22 1.065-5.461 1.786c-2.828.474-6.087.72-9.77.72-3.751 0-7.05-.254-9.898-.745q-4.268-.747-5.385-1.863l1.566-5.952-.694-3.895L8.404 30.2 6.296 14.774l1.211-.474 6.799 11.455.152-13.64 1.685-.296 5.182 13.716 2.777-14.757h1.719l2.777 14.707 5.131-13.665 1.71.296.152 13.64 6.824-11.481 1.16.542-2.057 15.359-2.21 3.793-.694 3.946 1.617 6.03M14.535 11.989c-.948 0-1.753-.322-2.413-.974s-.991-1.456-.991-2.396c0-.923.33-1.719.991-2.379q.99-.99 2.413-.991c.923 0 1.719.33 2.379.991.66.66.991 1.456.991 2.379 0 .94-.33 1.744-.991 2.396a3.27 3.27 0 0 1-2.379.974M35.36 11.989c-.94 0-1.736-.322-2.388-.974s-.982-1.456-.982-2.396c0-.923.33-1.719.982-2.379q.978-.99 2.388-.991 1.422 0 2.413.991c.66.66.991 1.456.991 2.379 0 .94-.33 1.744-.991 2.396q-.99.976-2.413.974M5.4 14.723c-.94 0-1.736-.33-2.388-.982s-.982-1.448-.982-2.396c0-.923.33-1.719.982-2.388.652-.677 1.448-1.01 2.388-1.01.948 0 1.744.33 2.413 1.01q.99 1.004.991 2.388 0 1.42-.991 2.396a3.32 3.32 0 0 1-2.413.982M44.541 14.723c-.94 0-1.744-.33-2.405-.982q-.99-.976-.991-2.396 0-1.384.991-2.388c.66-.677 1.465-1.01 2.405-1.01a3.2 3.2 0 0 1 2.388 1.01q.99 1.004.991 2.388 0 1.42-.991 2.396a3.28 3.28 0 0 1-2.388.982"/></g><path fill="url('#0')" d="M37.2 35.729c-3.04-.838-7.095-1.262-12.15-1.262-5.097 0-9.195.432-12.302 1.287l.373 2.506c3.124-.813 7.095-1.219 11.93-1.219q7.216 0 11.752 1.194l.398-2.506m1.736-4.437c-1.372-.5-3.302-.906-5.791-1.228s-5.232-.483-8.246-.483c-2.946 0-5.639.152-8.09.457-2.447.305-4.377.703-5.783 1.202l1.245 2.252q2.083-.61 5.41-.889a91 91 0 0 1 7.264-.271c2.633 0 5.063.093 7.29.271q3.352.28 5.436.914l1.261-2.227m-1.092 11.853-.737-2.929q-4.84-1.107-12.158-1.109c-4.826 0-8.865.373-12.11 1.109l-.787 2.955c3.141-.957 7.442-1.439 12.92-1.439 2.625 0 5.072.136 7.315.398q3.38.393 5.554 1.016"/></svg>