<svg xmlns="http://www.w3.org/2000/svg" width="177.17" height="177.17" fill-rule="evenodd" clip-rule="evenodd" image-rendering="optimizeQuality" shape-rendering="geometricPrecision" viewBox="0 0 50 50"><defs><linearGradient id="0" x1="21.13" x2="77.64" y1="37.592" y2="37.469" gradientUnits="userSpaceOnUse"><stop stop-color="#fff"/><stop offset="1" stop-color="#fff" stop-opacity="0"/></linearGradient></defs><path fill="#1f1a17" d="M25.447 42.01c-.229.94-.517 1.592-.847 1.956s-.762.745-1.312 1.143c-.593.415-1.295.762-2.108 1.05s-1.71.364-2.701.212l-6.968-.965a2.9 2.9 0 0 0-.762 0q-.33.051-.635.051c-.347 0-.787.076-1.321.237-.542.152-.957.381-1.253.677l-2.405-3.946q.444-.493.787-.694c.237-.127.508-.271.821-.415a9.2 9.2 0 0 1 3.073-.821 12 12 0 0 1 1.363-.025q.673.026 1.397-.051 1.335.229 2.684.406c.906.127 1.812.254 2.718.389.991 0 1.66-.102 2.01-.296.186-.102.474-.288.872-.55q.597-.394 1.194-1.168a17 17 0 0 1-2.684-.508 24 24 0 0 1-2.404-.754l2.582-6.401c-1.295-.745-2.193-1.338-2.709-1.795a5.3 5.3 0 0 1-1.211-1.575q-.65-1.143-.83-2.21a9.3 9.3 0 0 1-.161-1.913c.017-.991.245-2.083.703-3.285.457-1.194 1.312-2.269 2.565-3.209a80 80 0 0 0 3.057-2.455 28 28 0 0 0 2.946-2.955q-1.829-.94-1.829-2.997c0-.931.322-1.719.974-2.388.652-.66 1.456-.991 2.396-.991.923 0 1.719.33 2.379.991.66.669.991 1.456.991 2.388q0 2.032-1.829 2.997a27 27 0 0 0 2.913 2.955c.982.838 2.02 1.66 3.09 2.455 1.236.94 2.083 2.02 2.523 3.209.449 1.202.694 2.294.72 3.285a12 12 0 0 1-.169 1.913q-.175 1.067-.796 2.21a6 6 0 0 1-1.253 1.575c-.5.457-1.389 1.05-2.667 1.795l2.582 6.401a29 29 0 0 1-2.455.754c-.914.246-1.787.415-2.633.508q.571.775 1.168 1.168c.398.263.694.449.898.55q.52.294 2.01.296 1.333-.202 2.692-.389a81 81 0 0 0 2.718-.406q.66.076 1.346.051.684-.025 1.405.025a9.7 9.7 0 0 1 3.073.821c.296.144.567.288.804.415.245.135.508.364.804.694l-2.43 3.946c-.296-.296-.711-.525-1.253-.677-.533-.161-.965-.237-1.295-.237q-.33 0-.66-.051a2.8 2.8 0 0 0-.754 0l-6.951.965q-1.488.226-2.76-.195c-.855-.279-1.558-.652-2.1-1.118-.542-.449-.982-.83-1.304-1.151s-.593-.957-.804-1.897"/><path fill="url('#0')" d="M26.32 39.2c0 1.092.245 2.024.753 2.794.5.77 1.041 1.372 1.626 1.795.906.669 2.235.999 3.988.999.432 0 1.279-.093 2.532-.279a78 78 0 0 1 2.481-.356c.627-.076 1.05-.135 1.27-.186a6.5 6.5 0 0 1 1.981.051c.262.068.559.127.88.186.322.059.593.186.804.381l1.194-1.93a7.4 7.4 0 0 0-2.159-.72c-1.253-.22-2.354-.263-3.302-.152a8 8 0 0 0-1.101.245c-.457.136-1.067.263-1.846.373-1.676.271-2.557.398-2.659.398-.644 0-1.202-.076-1.685-.246a10 10 0 0 1-1.287-.542c-.881-.398-1.77-1.338-2.684-2.811zm-1.761 0h-.796c-.931 1.49-1.812 2.43-2.659 2.811-.398.195-.83.373-1.312.542s-1.033.246-1.66.246c-.119 0-.999-.127-2.659-.398-.787-.11-1.422-.237-1.88-.373-.466-.127-.83-.212-1.092-.245-.948-.11-2.04-.068-3.302.152a7 7 0 0 0-2.134.72l1.194 1.93q.294-.293.779-.381c.322-.059.618-.118.88-.186a6.5 6.5 0 0 1 1.981-.051c.22.051.643.11 1.27.186s1.465.195 2.506.356c1.236.186 2.083.279 2.532.279 1.736 0 3.065-.33 3.988-.999.567-.423 1.101-1.025 1.6-1.795q.762-1.156.762-2.794m.889-9.347c1.6 0 3.141.127 4.614.373 1.617-.576 2.794-1.482 3.522-2.701.627-1.058.94-2.227.94-3.497 0-.762-.186-1.6-.567-2.523-.381-.914-.999-1.744-1.863-2.489q-1.46-1.22-3.2-2.667c-1.151-.965-2.303-2.1-3.446-3.387-1.16 1.287-2.311 2.422-3.471 3.387q-1.74 1.447-3.175 2.667c-.881.745-1.499 1.575-1.871 2.489-.372.923-.559 1.761-.559 2.523q0 1.907.914 3.497c.711 1.219 1.897 2.125 3.548 2.701a27.7 27.7 0 0 1 4.614-.373m0 4.513c1.939 0 3.793.195 5.579.576l-1.185-3.057a28.018 28.018 0 0 0-8.805 0l-1.194 3.057a26.6 26.6 0 0 1 5.605-.576m0-23.537c1.126 0 1.685-.559 1.685-1.685s-.559-1.693-1.685-1.693-1.685.567-1.685 1.693.559 1.685 1.685 1.685m0 27.01a19 19 0 0 0 3.285-.279c1.067-.195 2.1-.423 3.09-.686-1.939-.508-4.064-.77-6.375-.77-2.345 0-4.47.263-6.375.77q1.435.394 3.048.686 1.613.279 3.327.279m-.889-14.334-2.066-.025c-.559 0-.838-.279-.838-.847q0-.838.838-.838h2.066v-2.134c0-.576.296-.872.889-.872.576 0 .872.296.872.872v2.134h2.134q.813 0 .813.838 0 .849-.813.847h-2.134v2.032c0 .601-.296.898-.872.898-.593 0-.889-.296-.889-.898v-2.01"/></svg>