<svg xmlns="http://www.w3.org/2000/svg" width="177.17" height="177.17" fill-rule="evenodd" clip-rule="evenodd" image-rendering="optimizeQuality" shape-rendering="geometricPrecision" viewBox="0 0 50 50"><defs><linearGradient id="0" x1="21.376" x2="77.64" gradientUnits="userSpaceOnUse"><stop stop-color="#fff"/><stop offset="1" stop-color="#fff" stop-opacity="0"/></linearGradient></defs><g fill="#1f1a17"><path d="M25.821 12.02H24.06V8.769h-2.066q-.838.002-.838-.821v-.025q0-.813.838-.813h2.066V5.002q0-.874.889-.872c.576 0 .872.288.872.872V7.11h2.134q.813 0 .813.813v.025q0 .823-.813.821l-2.117.025zM11.03 37.744l-.813-4.64q-.025 0-.076-.102-.127-.178-.711-.457c-.381-.195-.838-.516-1.346-.982a43 43 0 0 1-1.702-1.49 8.5 8.5 0 0 1-1.101-1.236c-1.01-1.389-1.575-3.065-1.685-5.04q-.252-2.847 2.303-5.681c1.719-1.88 4.047-2.769 6.968-2.65 1.092.068 2.379.33 3.844.796.483.195.974.39 1.482.576l1.499.584c.262.135.5.271.694.398a4.4 4.4 0 0 1-.127-1.041c0-1.287.457-2.388 1.38-3.302a4.64 4.64 0 0 1 3.311-1.389c1.287 0 2.388.466 3.302 1.38.906.914 1.363 2.02 1.363 3.285q0 .394-.102 1.041c.229-.144.457-.271.669-.372.762-.33 1.761-.72 3.01-1.16 1.422-.483 2.701-.754 3.844-.821 2.921-.136 5.241.754 6.943 2.65 1.668 1.888 2.447 3.785 2.328 5.681-.127 1.973-.703 3.649-1.71 5.04q-.495.672-1.118 1.253c-.406.39-.965.881-1.66 1.473-.542.466-1.01.796-1.389.982-.381.186-.601.347-.669.457a.3.3 0 0 1-.051.076q-.025.026-.025.051l-.796 4.665 1.643 6.121q-1.247 1.116-5.554 1.837c-2.879.483-6.206.72-9.974.72-3.835 0-7.214-.254-10.118-.754-2.912-.508-4.741-1.143-5.486-1.897l1.634-6.05"/></g><path fill="url('#0')" d="M25.796 29.532c2.845.034 5.444.203 7.806.508 2.371.305 4.225.694 5.563 1.151q.94-.736 2.057-1.651a12 12 0 0 0 1.863-1.846c.787-1.01 1.185-2.337 1.185-3.996 0-1.482-.356-2.726-1.067-3.717-1.27-1.854-3.209-2.777-5.8-2.777-1.558 0-3.15.322-4.792.965-1.439.584-2.532 1.228-3.268 1.939-1.389 1.389-2.421 3.175-3.082 5.351q-.343 1.17-.406 2.125a30 30 0 0 0-.059 1.947m-13.25 6.697q4.71-1.194 12.505-1.194c5.089 0 9.203.381 12.327 1.143l.618-3.649c-3.327-.872-7.671-1.312-13.05-1.312-5.41 0-9.745.449-13.02 1.338l.618 3.675m25.298 4.411-.737-2.845q-4.917-1.092-12.158-1.092c-4.809 0-8.856.364-12.133 1.092l-.787 2.87c3.158-.923 7.468-1.389 12.945-1.389 5.444 0 9.728.457 12.869 1.363m.652 2.337c-3.192-1.287-7.679-1.939-13.445-1.939-5.986 0-10.516.66-13.598 1.99 2.913 1.151 7.417 1.736 13.521 1.736 2.913 0 5.563-.161 7.959-.483 2.404-.322 4.25-.762 5.563-1.304M24.074 29.531a47 47 0 0 0-.068-1.922c-.034-.635-.161-1.346-.372-2.125q-1.014-3.317-3.082-5.351c-.711-.694-1.795-1.346-3.268-1.939-1.685-.66-3.285-.991-4.792-.991-2.608 0-4.547.931-5.8 2.802-.711.991-1.067 2.235-1.067 3.717 0 1.626.398 2.955 1.185 3.996.483.61 1.092 1.228 1.837 1.837.745.61 1.439 1.168 2.083 1.66 2.896-1.041 7.341-1.6 13.343-1.685m.872-4.614c.119-.466.212-.787.296-.965.169-.643.356-1.194.576-1.643a7 7 0 0 1 .432-.974c.186-.373.389-.804.61-1.279a13 13 0 0 0 .415-1.033c.152-.406.305-.804.449-1.202q.203-.495.203-1.067c0-.813-.296-1.499-.872-2.066q-.864-.864-2.108-.864c-1.964 0-2.955.991-2.955 2.955q0 .572.203 1.067.546 1.612.838 2.235c.22.474.415.906.601 1.279.178.372.339.694.466.974.22.55.398 1.092.55 1.643.034.093.127.415.296.94"/></svg>