<svg xmlns="http://www.w3.org/2000/svg" width="177.17" height="177.17" fill-rule="evenodd" clip-rule="evenodd" image-rendering="optimizeQuality" shape-rendering="geometricPrecision" viewBox="0 0 50 50"><defs><linearGradient id="0" x1="21.405" x2="77.64" gradientUnits="userSpaceOnUse"><stop stop-color="#fff"/><stop offset="1" stop-color="#fff" stop-opacity="0"/></linearGradient></defs><path fill="#1f1a17" d="M26.18 9.395c2.599.169 5 .838 7.222 2.02 2.21 1.168 4.098 2.675 5.656 4.513 1.092 1.287 2.117 2.845 3.082 4.665a28.7 28.7 0 0 1 2.32 5.774 36.5 36.5 0 0 1 1.253 7.459c.178 2.599.263 5.01.263 7.23v5.402H15.468q-.226-.002-.212-1.211c.008-.813.059-1.465.161-1.964.059-.398.22-.957.466-1.685.254-.728.66-1.609 1.245-2.65q.393-.798 1.88-2.32c.999-1.016 2.134-2.201 3.429-3.539.745-.762 1.321-1.719 1.744-2.879q.635-1.727.533-3.15-.914.75-2.01 1.219c-3.505 1.253-6.05 3.073-7.611 5.452-.119.152-.491.821-1.118 2.02-.33.627-.618 1.058-.847 1.287-.313.313-.771.491-1.363.525-.923.042-1.643-.398-2.159-1.346-.694.203-1.312.288-1.863.254q-1.384-.52-2.01-1.118c-.847-.847-1.389-1.685-1.651-2.532a9.4 9.4 0 0 1-.381-2.726c0-1.389.855-3.226 2.582-5.512 2.02-2.625 3.09-4.631 3.217-6q0-.889.178-2.01c.102-.517.305-1.01.618-1.49.22-.33.364-.559.432-.677q.112-.19.415-.559a3.6 3.6 0 0 1 .373-.457q.142-.163.373-.44c.178-.212.406-.457.694-.745a18.1 18.1 0 0 1-1.067-7.459c3.285 1.168 6.05 3.01 8.28 5.529.55-1.871 1.626-3.387 3.226-4.538 1.321.923 2.371 2.151 3.15 3.666"/><path fill="url('#0')" d="M42.976 44.693c-.017 0 0-.449.042-1.346q.076-1.36.076-2.921.026-3.097 0-6.409a26.8 26.8 0 0 0-.889-6.613c-.567-2.117-1.185-3.92-1.863-5.419s-1.414-2.786-2.21-3.878c-1.185-1.786-2.811-3.302-4.86-4.538q-3.073-1.867-6.426-2.438.228 1.22.203 2.388c-.034.593-.313.889-.847.889-.61 0-.881-.296-.821-.889.051-2.184-.728-4.056-2.328-5.605-1.253 1.321-1.939 2.853-2.032 4.606-.034.584-.33.838-.897.771q-.787-.026-.787-.914s.017-.068.042-.203q-1.016.328-2.134.923c-.474.33-.864.245-1.16-.246-.296-.499-.169-.889.398-1.168.711-.364 1.245-.635 1.609-.821a17.6 17.6 0 0 0-4.86-3.522c.195 2.303.83 4.47 1.888 6.528.279.423.212.804-.203 1.135-.466.364-.855.313-1.168-.169a9 9 0 0 1-.491-.897c-.347.347-.584.61-.694.77q-.178.228-.61.991-.431.775-.635 1.27c-.144.415-.212.745-.186 1.01.025.254.051.533.068.855a7.6 7.6 0 0 1-1.01 2.752c-.525.855-1.185 1.905-1.998 3.15a131 131 0 0 1-1.786 2.675c-.415.601-.728 1.355-.94 2.286-.152.559-.152 1.245 0 2.041.144.804.474 1.431.965 1.88q1.143 1.155 2.21 1.067.345 0 .931-.279c.389-.178.686-.525.906-1.041q.635-1.412 1.067-1.414c.406 0 .635.237.669.694 0 .102-.136.517-.398 1.245-.152.33-.347.677-.593 1.041-.322.432-.457.61-.423.542.262.948.703 1.109 1.312.499.178-.178.389-.525.618-1.016q.355-.748 1.092-2.01c.584-.982 1.202-1.77 1.863-2.388.66-.61 1.245-1.109 1.761-1.482q.444-.328 1.092-.745.648-.43 1.736-.872a30 30 0 0 0 1.922-.855 6.9 6.9 0 0 0 1.871-1.304c.762-.745 1.346-1.659 1.761-2.752.22-.61.296-1.363.245-2.261q-.218-.838.847-.838.798-.002.898.821-.002 2.794-1.592 5.105c.347 1.058.44 2.218.271 3.471-.144 1.01-.5 2.091-1.05 3.243-.559 1.143-1.676 2.422-3.361 3.827q-5.144 4.27-4.86 8.78h25.747M9.336 29.615c-.483.296-.77.694-.872 1.194q.026.813-.762.889-.874.104-.898-.745c.068-1.092.55-1.956 1.465-2.599.432-.347.83-.322 1.194.093q.546.673-.127 1.168m7.366-11.828a1.5 1.5 0 0 1 .246 1.041c-.161 1.058-.754 1.499-1.761 1.338a1.6 1.6 0 0 1-.72-.296c-.059.076-.161.262-.296.542-.178.533-.525.711-1.041.55-.508-.203-.711-.576-.593-1.118q1.117-2.855 4.04-3.92c.567-.169.94 0 1.118.491q.303.8-.449 1.092c-.093.051-.186.102-.271.136-.085.042-.169.093-.271.144"/></svg>