<svg xmlns="http://www.w3.org/2000/svg" width="177.17" height="177.17" fill-rule="evenodd" clip-rule="evenodd" image-rendering="optimizeQuality" shape-rendering="geometricPrecision" viewBox="0 0 50 50"><defs><linearGradient id="0" x1="21.13" x2="77.76" y1="37.35" y2="37.469" gradientTransform="matrix(1 0 0 .97324 0 1.243)" gradientUnits="userSpaceOnUse"><stop stop-color="#fff"/><stop offset="1" stop-color="#fff" stop-opacity="0"/></linearGradient></defs><path fill="#1f1a17" d="M25 46.45H11.606a13.1 13.1 0 0 1-.991-5.04c0-2.975.864-5.644 2.599-8.02 1.736-2.365 3.971-4.054 6.697-5.068a6.83 6.83 0 0 1-2.862-2.398c-.737-1.071-1.101-2.283-1.101-3.634 0-1.689.576-3.156 1.736-4.392q1.728-1.866 4.267-2.151c-1.346-.981-2.02-2.282-2.02-3.889 0-1.351.491-2.513 1.482-3.477q1.473-1.444 3.581-1.442 2.085-.002 3.573 1.442c.991.964 1.49 2.126 1.49 3.477 0 1.607-.669 2.909-2.02 3.889q2.54.284 4.267 2.151c1.16 1.236 1.736 2.703 1.736 4.392q.002 2.027-1.126 3.634a7.04 7.04 0 0 1-2.862 2.398q4.091 1.52 6.697 5.068c1.736 2.373 2.599 5.04 2.599 8.02q0 2.61-.965 5.04H24.989"/><path fill="url('#0')" d="M25 44.808h12.175c.347-1.154.525-2.291.525-3.403 0-2.513-.711-4.787-2.142-6.831s-3.277-3.552-5.52-4.516c-1.584-.62-1.643-.659-1.643-1.739 0-.849.559-1.475 1.668-1.879 1.532-1.047 2.303-2.431 2.303-4.153 0-1.244-.432-2.324-1.287-3.263q-1.296-1.395-3.124-1.615c-.999-.082-1.49-.626-1.49-1.64q-.002-.68.542-1.261c.898-.676 1.346-1.557 1.346-2.653 0-.898-.339-1.673-.999-2.316A3.26 3.26 0 0 0 25 8.575c-.94 0-1.744.321-2.396.964s-.974 1.417-.974 2.316c0 1.079.44 1.961 1.338 2.653.364.354.542.775.542 1.261 0 1.014-.483 1.557-1.465 1.64a4.9 4.9 0 0 0-3.133 1.615c-.855.939-1.279 2.02-1.279 3.263q.002 2.583 2.303 4.153c1.109.412 1.668 1.046 1.668 1.879 0 1.079-.067 1.118-1.668 1.739-2.244.964-4.081 2.472-5.503 4.516s-2.134 4.318-2.134 6.831c0 1.195.178 2.324.525 3.403z"/></svg>